<svg width="136" height="104" viewBox="0 0 136 104" fill="none" xmlns="http://www.w3.org/2000/svg">
<g clip-path="url(#clip0_493_18652)">
<path d="M77.0277 23.3828V28.8399C66.1172 31.4549 67.9751 47.7505 57.4396 48.6998H52.1488C49.0736 48.6998 46.5811 46.178 46.5811 43.0796V36.1723C46.5811 33.0623 49.0793 30.5405 52.1488 30.5405H59.0321V23.3828C59.0321 20.366 61.4496 17.9199 64.4383 17.9199H71.61C74.6045 17.9141 77.0277 20.366 77.0277 23.3828Z" fill="#008593"/>
<path d="M89.4185 36.1669V43.0742C89.4185 46.1784 86.9202 48.6944 83.8392 48.6944H77.0309V55.753C77.0309 58.7699 74.6077 61.216 71.619 61.216H64.4472C61.4585 61.216 59.041 58.7699 59.041 55.753V50.3833C67.9667 49.0147 69.4207 32.7191 77.2386 30.5293H83.8392C86.9202 30.5351 89.4185 33.0569 89.4185 36.1669Z" fill="#419378"/>
<path d="M60.4823 1.63086V10.4076L50.4199 7.78101V4.36232L60.4823 1.63086Z" fill="#008593"/>
<path d="M68.7273 76.7777C67.8907 76.5855 67.0137 76.3409 66.131 76.0439C58.5207 73.5337 47.6679 66.7546 40.0289 55.2464C30.7916 41.3445 28.3106 23.5755 32.8629 3.86705L33.2379 2.23633L34.8592 2.59742C37.5421 3.20311 43.2657 4.19901 48.5911 4.32714V7.71671C44.2523 7.63517 39.85 6.99453 36.8324 6.44708L35.7593 6.25489L35.54 7.33233C31.9571 25.2178 34.4034 40.7097 42.8098 53.371C50.3566 64.7337 61.2498 71.1401 68.2831 73.1785L68.6177 73.2775L68.9466 73.1668C76.026 70.7673 86.1114 64.4017 93.1851 53.7496C101.597 41.0941 104.044 25.6022 100.455 7.71671L100.236 6.63927L99.1625 6.83146C96.1507 7.37892 91.7426 8.01956 87.4038 8.1011V4.71153C92.7293 4.5834 98.4586 3.5875 101.141 2.9818L102.763 2.62071L103.138 4.25143C107.684 23.954 105.209 41.723 95.9718 55.6308C88.2866 67.203 77.3876 73.9822 69.7486 76.469C69.3966 76.5797 69.062 76.6845 68.7273 76.7777Z" fill="#008593"/>
<path d="M75.5186 1.99805V10.7748L85.5867 8.15402V4.73533L75.5186 1.99805Z" fill="#008593"/>
<path d="M16.1822 84.8691V87.6297H10.4471V104.182H7.4469V87.6297H1.70605V84.8691H16.1822Z" fill="#008593"/>
<path d="M23.2872 93.1509C22.2487 93.1509 21.4178 93.4887 20.8005 94.1701C20.1831 94.8457 19.8716 95.795 19.8716 97.0181V104.182H17.1367V90.9436H19.8716V92.3181L20.0446 92.1434C20.1254 92.0618 20.2927 91.9279 20.5524 91.7473C20.812 91.561 21.0832 91.3979 21.3717 91.2465C21.6602 91.1009 22.0294 90.9611 22.4795 90.8446C22.9295 90.7223 23.3795 90.6641 23.8353 90.6641H24.5162V93.2907C24.1527 93.1975 23.743 93.1509 23.2872 93.1509Z" fill="#008593"/>
<path d="M34.4863 104.182V102.807C34.4517 102.842 34.3882 102.9 34.3075 102.982C34.2209 103.063 34.0536 103.197 33.7997 103.378C33.5459 103.564 33.2747 103.727 32.9804 103.879C32.6862 104.024 32.3169 104.158 31.8726 104.275C31.4284 104.391 30.9783 104.449 30.5225 104.449C29.1897 104.449 28.082 104.059 27.1992 103.279C26.3164 102.498 25.8779 101.602 25.8779 100.6C25.8779 99.5107 26.2183 98.6021 26.8992 97.8683C27.58 97.1345 28.5089 96.6627 29.6917 96.4706L34.4805 95.6377C34.4805 94.9388 34.2267 94.3506 33.7132 93.8731C33.1997 93.3955 32.5477 93.1567 31.7457 93.1567C31.0533 93.1567 30.4245 93.3023 29.859 93.5935C29.2936 93.8847 28.907 94.1817 28.6935 94.4729L28.3358 94.9447L26.5588 93.1509C26.6107 93.081 26.6857 92.9878 26.778 92.8772C26.8703 92.7665 27.078 92.5685 27.4069 92.2831C27.73 91.9977 28.0762 91.7473 28.4397 91.5202C28.8032 91.293 29.2878 91.095 29.8879 90.9203C30.4879 90.7456 31.111 90.6582 31.7515 90.6582C33.3497 90.6582 34.6652 91.1358 35.6864 92.0909C36.7077 93.046 37.2212 94.2283 37.2212 95.6261V104.176H34.4863V104.182ZM33.5459 100.973C34.1748 100.303 34.4863 99.3476 34.4863 98.1129V97.845L30.2456 98.5323C29.7552 98.6196 29.3628 98.8235 29.057 99.138C28.757 99.4524 28.6012 99.8485 28.6012 100.32C28.6012 100.763 28.8147 101.147 29.2359 101.479C29.6571 101.811 30.2283 101.98 30.938 101.98C32.0515 101.974 32.917 101.636 33.5459 100.973Z" fill="#008593"/>
<path d="M44.7295 104.181L39.3926 90.9434H42.2601L46.0912 100.6L49.9223 90.9434H52.7898L47.4528 104.181H44.7295Z" fill="#008593"/>
<path d="M56.864 98.5264C57.0083 99.4583 57.4641 100.268 58.2314 100.949C58.9988 101.631 59.9162 101.974 60.972 101.974C61.7394 101.974 62.4491 101.8 63.1126 101.45C63.7761 101.101 64.2434 100.757 64.5204 100.425L64.9358 99.9125L66.7129 101.706C66.661 101.776 66.5744 101.881 66.4648 102.009C66.3552 102.137 66.1128 102.359 65.7493 102.667C65.3859 102.976 64.9993 103.25 64.5896 103.488C64.18 103.727 63.6492 103.949 62.9972 104.147C62.3452 104.345 61.6702 104.449 60.9778 104.449C59.12 104.449 57.516 103.762 56.1659 102.382C54.8158 101.002 54.1465 99.3476 54.1465 97.4199C54.1465 95.562 54.8042 93.9721 56.1139 92.6442C57.4237 91.3221 58.9988 90.6582 60.8393 90.6582C62.6741 90.6582 64.2088 91.2755 65.4262 92.5102C66.6494 93.7449 67.261 95.2941 67.261 97.152L67.1168 98.5264H56.864ZM58.3411 93.8964C57.6718 94.4846 57.216 95.2475 56.9852 96.1794H64.5781C64.4165 95.2475 64.0069 94.4846 63.3376 93.8964C62.6683 93.3081 61.8317 93.0169 60.8278 93.0169C59.8412 93.0169 59.0103 93.3081 58.3411 93.8964Z" fill="#008593"/>
<path d="M73.2506 104.182H70.5273V84.8691H73.2506V104.182Z" fill="#008593"/>
<path d="M90.1111 84.9848C90.9996 85.2411 91.7382 85.5556 92.3209 85.9225C92.9036 86.2894 93.4114 86.6563 93.8499 87.0115C94.2884 87.3726 94.6057 87.6813 94.8134 87.9434L95.1077 88.3219L93.1979 90.2613C93.146 90.1915 93.0652 90.0866 92.9671 89.9585C92.8632 89.8304 92.6325 89.5916 92.269 89.2538C91.9055 88.9102 91.5131 88.619 91.0919 88.3744C90.6708 88.1298 90.1284 87.8968 89.4591 87.6871C88.7898 87.4775 88.0802 87.3726 87.3301 87.3726C85.3453 87.3726 83.6663 88.0657 82.2874 89.4518C80.9084 90.8379 80.2218 92.5327 80.2218 94.5362C80.2218 96.5396 80.9084 98.2344 82.2816 99.6263C83.6548 101.018 85.3396 101.711 87.3301 101.711C88.0802 101.711 88.7898 101.606 89.4707 101.397C90.1515 101.187 90.7169 100.931 91.167 100.634C91.617 100.337 92.0093 100.046 92.3555 99.7545C92.7017 99.4633 92.9556 99.2128 93.1229 99.009L93.3364 98.6712L95.2577 100.611C95.1884 100.721 95.0788 100.861 94.9288 101.036C94.7845 101.21 94.4557 101.519 93.9537 101.956C93.4518 102.399 92.9152 102.789 92.3555 103.127C91.7901 103.47 91.0516 103.773 90.1399 104.047C89.2283 104.32 88.2936 104.46 87.3301 104.46C84.4683 104.46 82.0624 103.499 80.1237 101.577C78.1851 99.6554 77.2158 97.3084 77.2158 94.5362C77.2158 91.7639 78.1851 89.411 80.1237 87.4949C82.0624 85.573 84.4626 84.6121 87.3301 84.6121C88.2936 84.6004 89.2226 84.7285 90.1111 84.9848Z" fill="#419378"/>
<path d="M105.891 104.182V102.807C105.856 102.842 105.793 102.9 105.712 102.982C105.625 103.063 105.458 103.197 105.204 103.378C104.95 103.564 104.679 103.727 104.385 103.879C104.09 104.024 103.721 104.158 103.277 104.275C102.833 104.391 102.383 104.449 101.927 104.449C100.594 104.449 99.4863 104.059 98.6035 103.279C97.7207 102.498 97.2822 101.602 97.2822 100.6C97.2822 99.5107 97.6226 98.6021 98.3035 97.8683C98.9843 97.1345 99.9132 96.6627 101.096 96.4706L105.885 95.6377C105.885 94.9388 105.631 94.3506 105.117 93.8731C104.604 93.3955 103.952 93.1567 103.15 93.1567C102.458 93.1567 101.829 93.3023 101.263 93.5935C100.698 93.8847 100.311 94.1817 100.098 94.4729L99.7401 94.9447L97.9631 93.1509C98.015 93.081 98.09 92.9878 98.1823 92.8772C98.2746 92.7665 98.4823 92.5685 98.8112 92.2831C99.1343 91.9977 99.4805 91.7473 99.844 91.5202C100.207 91.293 100.692 91.095 101.292 90.9203C101.892 90.7456 102.515 90.6582 103.156 90.6582C104.76 90.6582 106.069 91.1358 107.091 92.0909C108.112 93.046 108.625 94.2283 108.625 95.6261V104.176H105.891V104.182ZM104.95 100.973C105.579 100.303 105.891 99.3476 105.891 98.1129V97.845L101.65 98.5323C101.159 98.6196 100.767 98.8235 100.461 99.138C100.161 99.4524 100.006 99.8485 100.006 100.32C100.006 100.763 100.219 101.147 100.64 101.479C101.061 101.811 101.627 101.98 102.342 101.98C103.456 101.974 104.327 101.636 104.95 100.973Z" fill="#419378"/>
<path d="M118.598 93.1509C117.559 93.1509 116.728 93.4887 116.111 94.1701C115.494 94.8457 115.182 95.795 115.182 97.0181V104.182H112.447V90.9436H115.182V92.3181L115.355 92.1434C115.436 92.0618 115.603 91.9279 115.863 91.7473C116.123 91.561 116.394 91.3979 116.682 91.2465C116.971 91.1009 117.34 90.9611 117.79 90.8446C118.24 90.7223 118.69 90.6641 119.146 90.6641H119.827V93.2907C119.457 93.1975 119.048 93.1509 118.598 93.1509Z" fill="#419378"/>
<path d="M123.904 98.5264C124.048 99.4583 124.504 100.268 125.271 100.949C126.039 101.631 126.956 101.974 128.012 101.974C128.779 101.974 129.489 101.8 130.153 101.45C130.816 101.101 131.283 100.757 131.56 100.425L131.976 99.9125L133.747 101.706C133.695 101.776 133.614 101.881 133.499 102.009C133.389 102.137 133.153 102.359 132.784 102.667C132.42 102.976 132.033 103.25 131.624 103.488C131.214 103.727 130.683 103.949 130.031 104.147C129.379 104.35 128.704 104.449 128.012 104.449C126.154 104.449 124.55 103.762 123.2 102.382C121.85 101.002 121.181 99.3476 121.181 97.4199C121.181 95.562 121.838 93.9721 123.148 92.6442C124.458 91.3221 126.033 90.6582 127.874 90.6582C129.714 90.6582 131.243 91.2755 132.466 92.5102C133.689 93.7449 134.301 95.2941 134.301 97.152L134.157 98.5264H123.904ZM125.375 93.8964C124.706 94.4846 124.25 95.2475 124.019 96.1794H131.612C131.451 95.2475 131.041 94.4846 130.372 93.8964C129.703 93.3081 128.866 93.0169 127.862 93.0169C126.875 93.0169 126.05 93.3081 125.375 93.8964Z" fill="#419378"/>
</g>
<defs>
<clipPath id="clip0_493_18652">
<rect width="136" height="104" fill="white"/>
</clipPath>
</defs>
</svg>
