<svg width="96" height="82" viewBox="0 0 96 82" fill="none" xmlns="http://www.w3.org/2000/svg">
<path d="M57.6688 24.7054V30.471C45.9837 33.2338 47.9734 50.4507 36.69 51.4537H31.0236C27.73 51.4537 25.0605 48.7893 25.0605 45.5158V38.218C25.0605 34.9321 27.7362 32.2678 31.0236 32.2678H38.3955V24.7054C38.3955 21.518 40.9846 18.9336 44.1855 18.9336H51.8664C55.0735 18.9275 57.6688 21.518 57.6688 24.7054Z" fill="#008593"/>
<path d="M70.9393 38.2122V45.51C70.9393 48.7897 68.2637 51.4479 64.964 51.4479H57.6724V58.9057C57.6724 62.0931 55.0771 64.6775 51.8762 64.6775H44.1953C40.9944 64.6775 38.4053 62.0931 38.4053 58.9057V53.2324C47.9647 51.7864 49.5219 34.5695 57.8948 32.2559H64.964C68.2637 32.262 70.9393 34.9264 70.9393 38.2122Z" fill="#419378"/>
<path d="M39.9486 1.72266V10.9957L29.1719 8.22052V4.60855L39.9486 1.72266Z" fill="#008593"/>
<path d="M48.7787 81.1191C47.8827 80.916 46.9434 80.6576 45.998 80.3438C37.8475 77.6917 26.2242 70.5293 18.0428 58.3704C8.14973 43.6826 5.49263 24.9089 10.3681 4.0862L10.7698 2.36328L12.5061 2.74479C15.3795 3.38473 21.5094 4.43693 27.2129 4.57231V8.15352C22.5661 8.06737 17.8513 7.39051 14.6195 6.8121L13.4701 6.60904L13.2353 7.7474C9.39796 26.6441 12.018 43.0118 21.0212 56.3891C29.1038 68.3941 40.7703 75.1627 48.3029 77.3164L48.6613 77.421L49.0135 77.3041C56.5955 74.7689 67.397 68.0434 74.9728 56.789C83.9822 43.418 86.6023 27.0502 82.7587 8.15352L82.5239 7.01516L81.3746 7.21822C78.149 7.79662 73.428 8.47349 68.7811 8.55963V4.97843C74.4846 4.84305 80.6207 3.79084 83.4941 3.1509L85.2305 2.7694L85.6321 4.49231C90.5014 25.3089 87.8505 44.0825 77.9574 58.7765C69.7266 71.0031 58.0538 78.1655 49.8724 80.793C49.4955 80.9099 49.1371 81.0206 48.7787 81.1191Z" fill="#008593"/>
<path d="M56.0508 2.10938V11.3824L66.8337 8.61339V5.00142L56.0508 2.10938Z" fill="#008593"/>
</svg>
