<svg width="51" height="50" viewBox="0 0 51 50" fill="none" xmlns="http://www.w3.org/2000/svg">
<g clip-path="url(#clip0_452_31744)">
<path d="M21.039 12.5186C19.3421 12.6297 17.7163 13.2414 16.3671 14.2765C15.4399 14.9929 14.6698 15.8922 14.1046 16.9186C12.4327 17.3655 11.0796 17.8936 10.089 18.5296C9.0749 19.1811 8.34521 19.9983 8.3124 21.0233C8.27959 22.0499 8.97177 22.903 9.95146 23.5655C10.9249 24.2233 12.2655 24.7718 13.9483 25.2311C14.5546 26.6983 15.2499 27.7327 15.8468 28.8452C16.6749 30.3858 17.3936 32.1765 17.6936 36.0015L17.6905 35.9405C17.6905 36.7697 18.0199 37.565 18.6063 38.1513C19.1926 38.7377 19.9879 39.0671 20.8171 39.0671C21.6463 39.0671 22.4416 38.7377 23.0279 38.1513C23.6142 37.565 23.9436 36.7697 23.9436 35.9405V31.5155C23.9436 30.4577 24.6827 29.6905 25.5093 29.6905C26.3374 29.6905 27.0718 30.4577 27.0718 31.5155V35.9405C27.0715 36.4894 27.216 37.0287 27.4905 37.5041C27.7651 37.9794 28.1601 38.374 28.6357 38.6481C29.1113 38.9221 29.6507 39.066 30.1996 39.0653C30.7485 39.0645 31.2876 38.9191 31.7624 38.6436C32.728 38.0874 33.3249 37.0561 33.3249 35.9405L33.3218 36.0171C33.7046 32.1858 34.4249 30.3843 35.2343 28.839C35.8202 27.7218 36.4921 26.6843 37.0843 25.2171C37.953 24.9749 38.7733 24.7124 39.4827 24.4077C40.6796 23.8936 41.5546 23.3327 42.1171 22.6311C42.6796 21.9311 42.8546 20.9827 42.5077 20.1936C42.1593 19.4046 41.4499 18.7999 40.4765 18.2624C39.5546 17.7499 38.3483 17.3061 36.8952 16.9186C36.0404 15.3629 34.722 14.1122 33.1233 13.3405C30.6311 12.1499 27.8452 12.3624 25.514 13.5624C24.103 12.8343 22.5686 12.4186 21.039 12.5186ZM21.139 14.078C22.064 14.0155 22.953 14.4015 23.8452 14.7093C23.3655 15.1265 22.8546 15.5015 22.4671 16.0343C22.4066 16.1172 22.3629 16.2112 22.3387 16.3109C22.3145 16.4107 22.3102 16.5142 22.326 16.6156C22.3419 16.7171 22.3775 16.8144 22.4309 16.902C22.4843 16.9897 22.5545 17.0659 22.6374 17.1265C22.7203 17.187 22.8143 17.2306 22.9141 17.2548C23.0138 17.279 23.1173 17.2833 23.2188 17.2675C23.3202 17.2517 23.4175 17.216 23.5051 17.1626C23.5928 17.1092 23.6691 17.039 23.7296 16.9561C24.6958 15.6272 26.0969 14.6788 27.6897 14.2754C29.2824 13.8721 30.9661 14.0394 32.4483 14.7483C33.9315 15.4549 35.1201 16.6589 35.8075 18.1511C36.4949 19.6432 36.6376 21.3291 36.2108 22.9155C36.1124 23.2827 36.0015 23.5749 35.8936 23.889C31.2436 24.9983 24.4421 25.3452 18.6124 24.5608C18.5087 24.5423 18.4024 24.545 18.2998 24.5686C18.1972 24.5923 18.1005 24.6364 18.0154 24.6984C17.9302 24.7604 17.8585 24.8389 17.8045 24.9293C17.7506 25.0197 17.7154 25.1201 17.7012 25.2244C17.6869 25.3287 17.6939 25.4348 17.7218 25.5364C17.7496 25.6379 17.7976 25.7328 17.8631 25.8153C17.9285 25.8978 18.0099 25.9662 18.1024 26.0165C18.1949 26.0667 18.2966 26.0978 18.4015 26.1077C23.9983 26.8608 30.3233 26.6827 35.1624 25.689C34.7483 26.5202 34.3046 27.2515 33.853 28.1124C32.9827 29.7733 32.164 31.878 31.7655 35.8624C31.7632 35.8884 31.7621 35.9144 31.7624 35.9405C31.7444 36.3432 31.5717 36.7235 31.2804 37.0021C30.989 37.2807 30.6015 37.4362 30.1983 37.4362C29.7952 37.4362 29.4076 37.2807 29.1163 37.0021C28.8249 36.7235 28.6523 36.3432 28.6343 35.9405L28.6374 31.5124C28.6374 29.6936 27.2733 28.1249 25.5093 28.1249C23.7436 28.1249 22.3811 29.6936 22.3811 31.5124V35.9405C22.3811 36.3549 22.2165 36.7523 21.9235 37.0454C21.6305 37.3384 21.233 37.503 20.8186 37.503C20.4042 37.503 20.0068 37.3384 19.7138 37.0454C19.4208 36.7523 19.2561 36.3549 19.2561 35.9405C19.256 35.9191 19.2549 35.8978 19.253 35.8765C18.9405 31.889 18.1186 29.7718 17.2233 28.1061C16.3296 26.4421 15.4436 25.3046 14.803 22.9155C14.5333 21.9107 14.49 20.8586 14.6762 19.835C14.8624 18.8115 15.2735 17.842 15.8798 16.9966C16.486 16.1511 17.2724 15.4508 18.1822 14.9461C19.0919 14.4414 20.1023 14.1449 21.1405 14.078H21.139ZM30.5686 16.553V16.5561C30.3793 16.5613 30.1982 16.6352 30.0592 16.7639C29.9202 16.8926 29.8327 17.0675 29.813 17.2559C29.7934 17.4444 29.8428 17.6335 29.9522 17.7882C30.0616 17.9429 30.2235 18.0525 30.4077 18.0968C31.2439 18.3142 31.9841 18.8033 32.5121 19.4872C33.0402 20.171 33.326 21.0109 33.3249 21.8749C33.3249 22.0821 33.4072 22.2808 33.5537 22.4273C33.7002 22.5738 33.8989 22.6561 34.1061 22.6561C34.3133 22.6561 34.5121 22.5738 34.6586 22.4273C34.8051 22.2808 34.8874 22.0821 34.8874 21.8749C34.8859 20.6659 34.4842 19.4913 33.7451 18.5346C33.006 17.5778 31.9709 16.8926 30.8015 16.5858C30.726 16.5632 30.6475 16.5521 30.5686 16.553ZM37.6936 18.7983C38.4921 19.064 39.2046 19.3421 39.7218 19.628C40.5233 20.0733 40.9499 20.528 41.0796 20.8218C41.2093 21.1171 41.2015 21.2749 40.8983 21.6515C40.5968 22.0296 39.9249 22.5186 38.8671 22.9733C38.5218 23.1218 38.1015 23.2483 37.7015 23.3827C37.7077 23.3593 37.7171 23.3421 37.7218 23.3186C38.1185 21.8368 38.1078 20.2754 37.6936 18.7983ZM13.339 18.8046C12.9205 20.2782 12.9054 21.8372 13.2952 23.3186C13.3015 23.339 13.3093 23.353 13.314 23.3733C12.278 23.0233 11.3874 22.6499 10.8265 22.2718C10.0749 21.764 9.86552 21.3468 9.8749 21.0749C9.88427 20.8046 10.139 20.3561 10.9343 19.8452C11.4952 19.4858 12.3546 19.1358 13.339 18.8046Z" fill="#00ADAD"/>
</g>
<defs>
<clipPath id="clip0_452_31744">
<rect width="50" height="50" fill="white" transform="translate(0.5)"/>
</clipPath>
</defs>
</svg>
