<svg width="51" height="50" viewBox="0 0 51 50" fill="none" xmlns="http://www.w3.org/2000/svg">
<path d="M13.3643 28.8076C13.3643 35.1841 18.2432 40.3612 24.2679 40.3612" stroke="#00ADAD" stroke-width="1.5" stroke-miterlimit="10" stroke-linecap="round" stroke-linejoin="round"/>
<path d="M13.3643 28.8072V23.1104" stroke="#00ADAD" stroke-width="1.5" stroke-miterlimit="10" stroke-linecap="round" stroke-linejoin="round"/>
<path d="M35.1914 25.9487V23.6699" stroke="#00ADAD" stroke-width="1.5" stroke-miterlimit="10" stroke-linecap="round" stroke-linejoin="round"/>
<path d="M35.6262 23.9301L21.2855 15.5547C18.8757 14.1555 18.046 11.0372 19.4485 8.5986C20.8312 6.15995 23.9127 5.32041 26.3225 6.73962L32.2682 10.2177C36.9101 12.9362 38.4904 18.9328 35.8237 23.6302L35.6262 23.9301Z" stroke="#00ADAD" stroke-width="1.5" stroke-miterlimit="10" stroke-linecap="round" stroke-linejoin="round"/>
<path d="M23.794 17.0139L11.9817 23.91L11.8039 23.5902C9.1175 18.8928 10.7175 12.8962 15.3594 10.1777L21.2063 6.75956L21.3051 6.69959C21.4038 6.63963 21.5026 6.59968 21.6014 6.53971C21.9372 6.3798 22.273 6.23987 22.6088 6.15991C22.7668 6.11994 22.9248 6.07995 23.0828 6.05996C23.3199 6.01999 23.5767 6 23.8137 6L24.5445 6.05996C24.7026 6.07995 24.8606 6.11994 25.0186 6.15991L26.026 6.53971C26.1643 6.59968 26.2828 6.6796 26.4211 6.75956" stroke="#00ADAD" stroke-width="1.5" stroke-miterlimit="10" stroke-linecap="round" stroke-linejoin="round"/>
<path d="M17.552 25.4893C17.552 25.4893 19.4088 27.2493 21.147 25.4893" stroke="#00ADAD" stroke-width="1.5" stroke-miterlimit="10" stroke-linecap="round" stroke-linejoin="round"/>
<path d="M30.5892 25.4893C30.5892 25.4893 28.7324 27.2493 26.9941 25.4893" stroke="#00ADAD" stroke-width="1.5" stroke-miterlimit="10" stroke-linecap="round" stroke-linejoin="round"/>
<path d="M33 41C36.0376 41 38.5 38.5376 38.5 35.5C38.5 32.4624 36.0376 30 33 30C29.9624 30 27.5 32.4624 27.5 35.5C27.5 38.5376 29.9624 41 33 41Z" stroke="#00ADAD" stroke-width="1.5" stroke-miterlimit="10" stroke-linecap="round" stroke-linejoin="round"/>
<line x1="37.245" y1="40.2627" x2="42.5001" y2="45.5178" stroke="#00ADAD" stroke-width="1.5" stroke-linecap="round"/>
</svg>
