<svg width="51" height="50" viewBox="0 0 51 50" fill="none" xmlns="http://www.w3.org/2000/svg">
<g clip-path="url(#clip0_452_31762)">
<path d="M27.5833 17.7938L32.7916 14.7868C33.1139 14.6007 33.4736 14.5077 33.8333 14.5076M27.5833 29.3269L32.7916 32.3339C33.1139 32.52 33.4736 32.6131 33.8333 32.6131M44.2499 17.7507L41.7592 19.1997M44.2499 29.209L41.8075 27.8082M41.7592 19.1997C41.5816 18.8166 41.2886 18.4897 40.9106 18.2714L34.8749 14.7868C34.5526 14.6007 34.1929 14.5076 33.8333 14.5076M41.7592 19.1997C41.8844 19.4698 41.9522 19.7679 41.9522 20.0757V27.045C41.9522 27.3105 41.9017 27.5688 41.8075 27.8082M41.8075 27.8082C41.6375 28.2398 41.3252 28.6099 40.9106 28.8493L34.8749 32.3339C34.5526 32.52 34.1929 32.6131 33.8333 32.6131M33.8333 10.459V14.5076M33.8333 36.5007V32.6131" stroke="#00ADAD" stroke-width="1.5" stroke-linecap="round"/>
<path d="M23.2024 17.7938L17.9941 14.7868C17.7359 14.6377 17.4537 14.5484 17.1668 14.5187M23.2024 29.3269L17.9941 32.3339C17.7359 32.483 17.4537 32.5724 17.1668 32.602M6.75011 17.7507L9.09896 19.0578M6.75011 29.209L9.04365 27.9571M9.09896 19.0578C9.27916 18.736 9.54458 18.4623 9.87506 18.2714L15.9107 14.7868C16.2971 14.5637 16.7373 14.4743 17.1668 14.5187M9.09896 19.0578C8.92769 19.3637 8.8334 19.713 8.8334 20.0757V27.045C8.8334 27.3666 8.9075 27.6776 9.04365 27.9571M9.04365 27.9571C9.22266 28.3247 9.50894 28.6379 9.87506 28.8493L15.9107 32.3339C16.2971 32.557 16.7373 32.6464 17.1668 32.602M17.1668 10.459V14.5187M17.1668 36.5007V32.602" stroke="#00ADAD" stroke-width="1.5" stroke-linecap="round"/>
<path d="M25.5 19.834V27.1257" stroke="#00ADAD" stroke-width="1.5" stroke-linecap="round"/>
<path d="M19.2499 8.37533C19.2499 9.52592 18.3172 10.4587 17.1666 10.4587C16.016 10.4587 15.0833 9.52592 15.0833 8.37533C15.0833 7.22473 16.016 6.29199 17.1666 6.29199C18.3172 6.29199 19.2499 7.22473 19.2499 8.37533Z" stroke="#00ADAD" stroke-width="1.5"/>
<path d="M19.2499 38.5833C19.2499 39.7339 18.3172 40.6667 17.1666 40.6667C16.016 40.6667 15.0833 39.7339 15.0833 38.5833C15.0833 37.4327 16.016 36.5 17.1666 36.5C18.3172 36.5 19.2499 37.4327 19.2499 38.5833Z" stroke="#00ADAD" stroke-width="1.5"/>
<path d="M35.9167 8.37533C35.9167 9.52592 34.9839 10.4587 33.8333 10.4587C32.6827 10.4587 31.75 9.52592 31.75 8.37533C31.75 7.22473 32.6827 6.29199 33.8333 6.29199C34.9839 6.29199 35.9167 7.22473 35.9167 8.37533Z" stroke="#00ADAD" stroke-width="1.5"/>
<path d="M35.9167 38.5833C35.9167 39.7339 34.9839 40.6667 33.8333 40.6667C32.6827 40.6667 31.75 39.7339 31.75 38.5833C31.75 37.4327 32.6827 36.5 33.8333 36.5C34.9839 36.5 35.9167 37.4327 35.9167 38.5833Z" stroke="#00ADAD" stroke-width="1.5"/>
</g>
<defs>
<clipPath id="clip0_452_31762">
<rect width="50" height="50" fill="white" transform="translate(0.5)"/>
</clipPath>
</defs>
</svg>
