<svg width="51" height="50" viewBox="0 0 51 50" fill="none" xmlns="http://www.w3.org/2000/svg">
<g clip-path="url(#clip0_452_31780)">
<path fill-rule="evenodd" clip-rule="evenodd" d="M22.9937 7.8125C22.8379 7.8125 22.6858 7.85904 22.5567 7.94616C22.4276 8.03328 22.3274 8.15699 22.2692 8.30142C22.2109 8.44585 22.1971 8.6044 22.2296 8.75672C22.2621 8.90904 22.3394 9.04817 22.4515 9.15625L22.9999 9.70312L12.1515 20.5531C12.0769 20.6252 12.0174 20.7114 11.9764 20.8067C11.9355 20.902 11.9139 21.0045 11.913 21.1083C11.9121 21.212 11.9319 21.3149 11.9712 21.4109C12.0104 21.5069 12.0685 21.5941 12.1418 21.6675C12.2152 21.7408 12.3024 21.7989 12.3984 21.8381C12.4944 21.8774 12.5973 21.8972 12.701 21.8963C12.8048 21.8954 12.9073 21.8738 13.0026 21.8329C13.0979 21.7919 13.1841 21.7324 13.2562 21.6578L24.1046 10.8094L24.889 11.5938C25.1952 11.8984 25.4671 12.2219 25.7202 12.5547L16.0484 22.2266C15.9738 22.2986 15.9142 22.3848 15.8733 22.4802C15.8323 22.5755 15.8108 22.678 15.8099 22.7817C15.809 22.8855 15.8288 22.9883 15.868 23.0843C15.9073 23.1804 15.9653 23.2676 16.0387 23.3409C16.112 23.4143 16.1993 23.4723 16.2953 23.5116C16.3913 23.5509 16.4942 23.5706 16.5979 23.5697C16.7016 23.5688 16.8042 23.5473 16.8995 23.5063C16.9948 23.4654 17.081 23.4059 17.1531 23.3313L26.5781 13.9062C26.9844 14.6903 27.2745 15.5293 27.439 16.3969L21.0546 22.7812C20.98 22.8533 20.9205 22.9395 20.8795 23.0348C20.8386 23.1302 20.817 23.2327 20.8161 23.3364C20.8152 23.4401 20.835 23.543 20.8743 23.639C20.9136 23.735 20.9716 23.8223 21.0449 23.8956C21.1183 23.969 21.2055 24.027 21.3015 24.0663C21.3975 24.1055 21.5004 24.1253 21.6042 24.1244C21.7079 24.1235 21.8104 24.102 21.9057 24.061C22.001 24.0201 22.0872 23.9606 22.1593 23.8859L27.5812 18.4656C27.4867 20.7195 26.5467 22.855 24.9484 24.4469C21.3968 28 15.6812 27.9781 12.0921 24.3891L9.65618 21.9547C9.58411 21.8801 9.49791 21.8206 9.40259 21.7796C9.30728 21.7387 9.20476 21.7171 9.10103 21.7162C8.99729 21.7153 8.89442 21.7351 8.79841 21.7744C8.70239 21.8136 8.61516 21.8717 8.54181 21.945C8.46846 22.0184 8.41045 22.1056 8.37117 22.2016C8.33188 22.2976 8.31212 22.4005 8.31302 22.5042C8.31392 22.608 8.33547 22.7105 8.37642 22.8058C8.41736 22.9011 8.47688 22.9873 8.55149 23.0594L10.9874 25.4969C12.4874 27.003 14.4025 28.0274 16.4878 28.4391C18.5732 28.8507 20.7339 28.6309 22.6937 27.8078C22.0253 29.4003 21.7535 31.1312 21.9019 32.8518C22.0502 34.5725 22.6142 36.2314 23.5452 37.6859C23.5747 37.7536 23.6137 37.8167 23.6609 37.8734C24.0484 38.4516 24.4968 39.0031 25.0077 39.5141L27.4452 41.9516C27.5165 42.0291 27.6027 42.0914 27.6987 42.1348C27.7947 42.1782 27.8984 42.2017 28.0037 42.204C28.109 42.2062 28.2137 42.1872 28.3114 42.1479C28.4092 42.1087 28.498 42.0501 28.5725 41.9757C28.647 41.9013 28.7057 41.8126 28.7451 41.7149C28.7844 41.6172 28.8037 41.5126 28.8015 41.4073C28.7994 41.302 28.7761 41.1982 28.7328 41.1021C28.6896 41.0061 28.6274 40.9198 28.5499 40.8484L27.9984 40.2953L38.8343 29.4609C38.9466 29.3509 39.0232 29.2096 39.0539 29.0554C39.0846 28.9012 39.0681 28.7413 39.0065 28.5966C38.9448 28.452 38.841 28.3293 38.7086 28.2446C38.5761 28.1599 38.4212 28.1171 38.264 28.1219C38.0612 28.1272 37.8684 28.2113 37.7265 28.3563L26.8937 39.1906L26.1124 38.4094C25.815 38.1071 25.5383 37.785 25.2843 37.4453L34.9374 27.7922C35.0513 27.6827 35.1292 27.5412 35.161 27.3865C35.1928 27.2317 35.1769 27.071 35.1155 26.9255C35.054 26.7799 34.9499 26.6564 34.8169 26.5713C34.6839 26.4861 34.5281 26.4433 34.3702 26.4484C34.1668 26.4551 33.9739 26.5408 33.8327 26.6875L24.4249 36.0969C24.0183 35.3119 23.7282 34.4718 23.564 33.6031L29.9327 27.2344C30.0454 27.1246 30.1224 26.9835 30.1535 26.8293C30.1846 26.6751 30.1685 26.5151 30.1072 26.3703C30.0459 26.2254 29.9423 26.1024 29.81 26.0174C29.6777 25.9324 29.5228 25.8893 29.3656 25.8938C29.1628 25.8991 28.97 25.9832 28.8281 26.1281L23.4265 31.5312C23.5198 29.2795 24.4582 27.1455 26.0546 25.5547C29.6062 22.0031 35.3202 22.0219 38.9077 25.6109L41.3452 28.0484C41.4917 28.1951 41.6905 28.2776 41.8978 28.2778C42.1051 28.2779 42.304 28.1957 42.4507 28.0492C42.5974 27.9027 42.6799 27.704 42.6801 27.4966C42.6802 27.2893 42.598 27.0904 42.4515 26.9437L40.0156 24.5094C38.0171 22.5017 35.3045 21.3679 32.4718 21.3563C31.042 21.3497 29.6257 21.6341 28.3093 22.1922C29.132 20.2328 29.3514 18.0725 28.9394 15.9876C28.5275 13.9028 27.5029 11.9883 25.9968 10.4891L23.5577 8.05156C23.4849 7.97595 23.3975 7.91582 23.3008 7.87474C23.2042 7.83367 23.1003 7.8125 22.9952 7.8125H22.9937Z" fill="#00ADAD"/>
</g>
<defs>
<clipPath id="clip0_452_31780">
<rect width="50" height="50" fill="white" transform="translate(0.5)"/>
</clipPath>
</defs>
</svg>
