<svg width="51" height="50" viewBox="0 0 51 50" fill="none" xmlns="http://www.w3.org/2000/svg">
<g clip-path="url(#clip0_452_31738)">
<path fill-rule="evenodd" clip-rule="evenodd" d="M15.3096 11.3858C13.5661 11.3891 11.8627 11.9087 10.4142 12.879C8.96574 13.8493 7.83704 15.2268 7.17051 16.8378C6.50398 18.4489 6.32947 20.2212 6.669 21.9312C7.00853 23.6413 7.84689 25.2125 9.07832 26.4467C9.08448 26.4525 9.09073 26.4582 9.09707 26.4639L22.3393 38.8514C22.4837 38.9866 22.6742 39.062 22.8721 39.0623H22.8939C23.0924 39.0624 23.2835 38.987 23.4283 38.8514L35.8908 27.1904L37.9033 32.4576C37.9612 32.6074 38.0638 32.7356 38.1971 32.825C38.3305 32.9144 38.4882 32.9605 38.6487 32.9571C38.8091 32.9536 38.9647 32.9009 39.0941 32.8059C39.2236 32.711 39.3206 32.5784 39.3721 32.4264L43.0205 21.7123L44.9221 26.1592C44.9822 26.2996 45.0823 26.4192 45.2097 26.5034C45.3372 26.5875 45.4865 26.6325 45.6393 26.6326H49.4533C49.6605 26.6326 49.8592 26.5503 50.0057 26.4038C50.1523 26.2573 50.2346 26.0586 50.2346 25.8514C50.2346 25.6442 50.1523 25.4455 50.0057 25.2989C49.8592 25.1524 49.6605 25.0701 49.4533 25.0701H46.1549L43.658 19.2233C43.5961 19.0786 43.492 18.9561 43.3593 18.8716C43.2266 18.7871 43.0715 18.7447 42.9143 18.7498V18.7529C42.7557 18.7581 42.6024 18.8113 42.4749 18.9057C42.3473 19 42.2515 19.1309 42.2002 19.2811L38.5908 29.8795L37.1096 26.0045C40.2221 22.6139 39.9768 17.2654 36.6846 13.9701C36.6091 13.8936 36.5187 13.8335 36.4189 13.7936C32.9627 10.5795 27.5861 10.6014 24.2221 13.9701L22.8814 15.3107L21.5424 13.9701C20.7252 13.1496 19.7539 12.4988 18.6842 12.0553C17.6145 11.6117 16.4676 11.3842 15.3096 11.3858ZM15.3096 12.9326C17.1611 12.9326 19.0127 13.6482 20.4377 15.0748L22.3283 16.967C22.4009 17.0398 22.4871 17.0975 22.582 17.1369C22.6769 17.1762 22.7787 17.1965 22.8814 17.1965C22.9842 17.1965 23.086 17.1762 23.1809 17.1369C23.2758 17.0975 23.362 17.0398 23.4346 16.967L25.3252 15.0764C25.9958 14.3982 26.7943 13.8598 27.6744 13.4924C28.5545 13.1249 29.4988 12.9357 30.4525 12.9357C31.4063 12.9357 32.3505 13.1249 33.2307 13.4924C34.1108 13.8598 34.9093 14.3982 35.5799 15.0764C38.3455 17.8451 38.5049 22.3123 35.8393 25.0733H32.1143L29.6564 21.2217C29.5766 21.0973 29.4631 20.9982 29.3291 20.9358C29.1952 20.8733 29.0462 20.8502 28.8996 20.869C28.7531 20.8878 28.6148 20.9478 28.501 21.0421C28.3871 21.1363 28.3023 21.2609 28.2564 21.4014L26.0611 28.2467L24.2736 25.4357C24.2031 25.3247 24.1057 25.2333 23.9905 25.1699C23.8752 25.1065 23.7458 25.0733 23.6143 25.0733H18.2283C18.0211 25.0733 17.8224 25.1556 17.6759 25.3021C17.5294 25.4486 17.4471 25.6473 17.4471 25.8545C17.4471 26.0617 17.5294 26.2604 17.6759 26.4069C17.8224 26.5534 18.0211 26.6358 18.2283 26.6358H23.1846L25.6408 30.4904C25.7208 30.6148 25.8344 30.7138 25.9685 30.7762C26.1025 30.8385 26.2515 30.8615 26.3981 30.8425C26.5447 30.8235 26.683 30.7633 26.7967 30.6689C26.9105 30.5745 26.9951 30.4498 27.0408 30.3092L29.233 23.4654L31.0236 26.2748C31.0945 26.3853 31.1921 26.4761 31.3073 26.5389C31.4226 26.6017 31.5518 26.6345 31.683 26.6342H34.1955L22.883 37.2217L10.1846 25.3436C9.5074 24.6713 8.96995 23.8716 8.6032 22.9907C8.23644 22.1098 8.04762 21.165 8.04762 20.2108C8.04762 19.2565 8.23644 18.3117 8.6032 17.4308C8.96995 16.5499 9.5074 15.7502 10.1846 15.0779C10.8549 14.3998 11.6529 13.8613 12.5326 13.4933C13.4122 13.1254 14.3561 12.9338 15.3096 12.9326Z" fill="#00ADAD"/>
</g>
<defs>
<clipPath id="clip0_452_31738">
<rect width="50" height="50" fill="white" transform="translate(0.5)"/>
</clipPath>
</defs>
</svg>
