<svg width="51" height="50" viewBox="0 0 51 50" fill="none" xmlns="http://www.w3.org/2000/svg">
<g clip-path="url(#clip0_452_31750)">
<path fill-rule="evenodd" clip-rule="evenodd" d="M20.3656 9.86426C17.825 9.86426 15.6703 11.4845 14.8343 13.7392C13.7392 13.8098 12.6853 14.1841 11.7911 14.8203C10.8969 15.4565 10.1976 16.3292 9.77185 17.3407C9.34997 18.3516 9.2406 19.4344 9.39372 20.475C8.38663 21.2963 7.62132 22.3755 7.17939 23.5976C6.73746 24.8196 6.63549 26.1387 6.88435 27.4142C7.20839 29.0535 8.0935 30.5287 9.38747 31.5861C9.25051 32.5154 9.33743 33.4639 9.641 34.3529C9.94457 35.2419 10.456 36.0456 11.1328 36.697C12.1391 37.6566 13.4513 38.2309 14.839 38.3188C15.3013 39.575 16.1763 40.6371 17.3208 41.3311C18.4653 42.0252 19.8115 42.3101 21.139 42.1393C22.0446 42.0178 22.9097 41.688 23.6663 41.1759C24.423 40.6637 25.0506 39.9832 25.5 39.1876C25.9493 39.9832 26.5769 40.6637 27.3336 41.1759C28.0903 41.688 28.9553 42.0178 29.8609 42.1393C31.1885 42.3101 32.5347 42.0252 33.6792 41.3311C34.8237 40.6371 35.6987 39.575 36.1609 38.3188C37.5486 38.2307 38.8608 37.6565 39.8672 36.697C40.5439 36.0456 41.0554 35.2419 41.3589 34.3529C41.6625 33.4639 41.7494 32.5154 41.6125 31.5861C42.9064 30.5287 43.7916 29.0535 44.1156 27.4142C44.3645 26.1387 44.2625 24.8196 43.8206 23.5976C43.3786 22.3755 42.6133 21.2963 41.6062 20.475C41.7684 19.4153 41.6376 18.3314 41.2281 17.3407C40.8026 16.3293 40.1036 15.4567 39.2096 14.8205C38.3157 14.1843 37.2621 13.8099 36.1672 13.7392C35.7508 12.6057 34.9975 11.6268 34.0084 10.9341C33.0193 10.2414 31.8419 9.86806 30.6343 9.86426C28.425 9.86426 26.5156 11.0969 25.5 12.8969C24.4843 11.0969 22.575 9.86426 20.3656 9.86426ZM20.3656 11.4268C20.9372 11.4247 21.5035 11.5356 22.0321 11.7531C22.5607 11.9707 23.041 12.2906 23.4455 12.6944C23.8501 13.0982 24.1708 13.5778 24.3893 14.106C24.6078 14.6342 24.7198 15.2005 24.7187 15.7721C24.7182 15.7893 24.7182 15.8064 24.7187 15.8236V36.2799C24.7187 38.4674 23.1062 40.3032 20.9343 40.5892C20.0333 40.7088 19.1175 40.5427 18.3158 40.1144C17.5142 39.6861 16.867 39.0172 16.4656 38.2017C16.564 38.1814 16.664 38.1705 16.7625 38.1439C16.9628 38.0905 17.1338 37.9595 17.2376 37.78C17.3415 37.6005 17.3698 37.3872 17.3164 37.1868C17.2629 36.9865 17.1321 36.8156 16.9526 36.7117C16.7731 36.6078 16.5597 36.5795 16.3593 36.6329C15.7218 36.8064 15.0531 36.8318 14.4042 36.7073C13.7554 36.5828 13.1435 36.3117 12.6155 35.9146C12.0874 35.5176 11.6571 35.005 11.3573 34.4162C11.0576 33.8274 10.8963 33.1779 10.8859 32.5173C11.2703 32.6985 11.6672 32.8595 12.0859 32.9705C12.2848 33.02 12.4951 32.9895 12.6717 32.8854C12.8482 32.7813 12.9768 32.6119 13.0296 32.4139C13.0825 32.2159 13.0555 32.0051 12.9544 31.8268C12.8532 31.6486 12.6861 31.5172 12.489 31.461C11.4714 31.1899 10.5502 30.6386 9.83039 29.8699C9.11054 29.1011 8.6209 28.1459 8.41716 27.1126C8.24176 26.2236 8.28417 25.3053 8.54075 24.4362C8.79733 23.5671 9.26047 22.7732 9.8906 22.122C10.1765 22.7314 10.5547 23.3032 11.0468 23.7938C11.1188 23.8685 11.2049 23.9282 11.3002 23.9693C11.3954 24.0104 11.4979 24.0321 11.6017 24.0332C11.7054 24.0342 11.8083 24.0145 11.9043 23.9754C12.0004 23.9363 12.0877 23.8783 12.1612 23.8051C12.2346 23.7318 12.2928 23.6447 12.3322 23.5487C12.3716 23.4528 12.3915 23.3499 12.3908 23.2462C12.39 23.1425 12.3686 23.04 12.3278 22.9447C12.287 22.8493 12.2276 22.763 12.1531 22.6908C11.5886 22.1279 11.19 21.4203 11.0012 20.6457C10.8124 19.8712 10.8406 19.0596 11.0828 18.3001C11.3249 17.5405 11.7716 16.8624 12.3739 16.3401C12.9762 15.8178 13.7107 15.4714 14.4968 15.3391C14.4859 15.4844 14.45 15.6236 14.45 15.7721C14.45 15.9793 14.5323 16.1779 14.6788 16.3244C14.8253 16.471 15.024 16.5533 15.2312 16.5533C15.4384 16.5533 15.6371 16.471 15.7836 16.3244C15.9302 16.1779 16.0125 15.9793 16.0125 15.7721C16.0114 15.2005 16.1234 14.6342 16.3419 14.106C16.5604 13.5778 16.8811 13.0982 17.2856 12.6944C17.6902 12.2906 18.1705 11.9707 18.6991 11.7531C19.2277 11.5356 19.794 11.4247 20.3656 11.4268ZM30.6343 11.4268C31.206 11.4247 31.7724 11.5356 32.3011 11.7531C32.8297 11.9706 33.3102 12.2904 33.7148 12.6942C34.1195 13.098 34.4404 13.5778 34.6591 14.106C34.8777 14.6342 34.9899 15.2004 34.989 15.7721C34.989 15.9793 35.0713 16.1779 35.2179 16.3244C35.3644 16.471 35.5631 16.5533 35.7703 16.5533C35.9775 16.5533 36.1762 16.471 36.3227 16.3244C36.4692 16.1779 36.5515 15.9793 36.5515 15.7721C36.5515 15.6236 36.5172 15.4844 36.5047 15.3391C37.2905 15.4719 38.0246 15.8185 38.6265 16.3409C39.2284 16.8632 39.6749 17.5413 39.917 18.3007C40.1591 19.06 40.1874 19.8714 39.9989 20.6457C39.8104 21.4201 39.4124 22.1277 38.8484 22.6908C38.7709 22.7621 38.7085 22.8483 38.6652 22.9443C38.6218 23.0403 38.5983 23.144 38.596 23.2493C38.5938 23.3546 38.6128 23.4592 38.652 23.5569C38.6913 23.6547 38.7498 23.7435 38.8243 23.818C38.8987 23.8926 38.9874 23.9513 39.0851 23.9907C39.1828 24.03 39.2874 24.0492 39.3927 24.0471C39.498 24.045 39.6018 24.0215 39.6978 23.9783C39.7939 23.935 39.8802 23.8728 39.9515 23.7953C40.4312 23.3095 40.8224 22.7438 41.1078 22.1236C41.7379 22.7744 42.2012 23.5682 42.4581 24.437C42.7149 25.3057 42.7577 26.2237 42.5828 27.1126C42.379 28.1459 41.8894 29.1011 41.1696 29.8699C40.4497 30.6386 39.5286 31.1899 38.5109 31.461C38.4117 31.4874 38.3187 31.5332 38.2371 31.5956C38.1556 31.6581 38.0872 31.736 38.0357 31.8249C37.9319 32.0044 37.9035 32.2177 37.957 32.4181C38.0105 32.6184 38.1413 32.7893 38.3208 32.8932C38.5003 32.9971 38.7137 33.0254 38.914 32.972C39.3343 32.8595 39.7297 32.6985 40.114 32.5173C40.1036 33.1779 39.9423 33.8274 39.6425 34.4162C39.3428 35.005 38.9125 35.5176 38.3845 35.9148C37.8565 36.312 37.2447 36.5834 36.5958 36.7081C35.947 36.8328 35.2782 36.8076 34.6406 36.6345C34.5405 36.6048 34.4354 36.5956 34.3316 36.6072C34.2278 36.6188 34.1274 36.6511 34.0363 36.7022C33.9452 36.7533 33.8653 36.8222 33.8012 36.9047C33.7372 36.9873 33.6904 37.0817 33.6635 37.1826C33.6367 37.2836 33.6303 37.389 33.6449 37.4924C33.6594 37.5958 33.6946 37.6952 33.7482 37.7848C33.8019 37.8744 33.873 37.9524 33.9573 38.0141C34.0416 38.0757 34.1374 38.1199 34.239 38.1439C34.3359 38.1705 34.4359 38.1814 34.5343 38.2017C34.1329 39.0172 33.4858 39.6861 32.6841 40.1144C31.8824 40.5427 30.9666 40.7088 30.0656 40.5892C29.0185 40.4542 28.0566 39.9422 27.3599 39.1489C26.6633 38.3557 26.2798 37.3356 26.2812 36.2799V15.7721C26.2802 15.2005 26.3921 14.6342 26.6106 14.106C26.8291 13.5778 27.1499 13.0982 27.5544 12.6944C27.9589 12.2906 28.4393 11.9707 28.9678 11.7531C29.4964 11.5356 30.0628 11.4247 30.6343 11.4268ZM20.2875 12.4266C20.0803 12.437 19.8857 12.5293 19.7465 12.6831C19.6073 12.837 19.5349 13.0397 19.5453 13.2469C19.5556 13.4541 19.6479 13.6489 19.8017 13.7881C19.9556 13.9272 20.1584 13.9995 20.3656 13.9891C21.3625 13.9891 22.1515 14.7783 22.1515 15.7721C22.1515 15.9793 22.2338 16.1779 22.3804 16.3244C22.5269 16.471 22.7256 16.5533 22.9328 16.5533C23.14 16.5533 23.3387 16.471 23.4852 16.3244C23.6317 16.1779 23.714 15.9793 23.714 15.7721C23.7099 14.8857 23.3557 14.0369 22.7285 13.4106C22.1013 12.7843 21.252 12.4312 20.3656 12.4283C20.3396 12.427 20.3135 12.427 20.2875 12.4283V12.4266ZM30.6343 12.4266C29.7477 12.4295 28.8982 12.7828 28.2709 13.4094C27.6437 14.0361 27.2896 14.8854 27.2859 15.7721C27.2859 15.9793 27.3682 16.1779 27.5147 16.3244C27.6612 16.471 27.86 16.5533 28.0672 16.5533C28.2744 16.5533 28.4731 16.471 28.6196 16.3244C28.7661 16.1779 28.8484 15.9793 28.8484 15.7721C28.8484 14.7783 29.6375 13.9908 30.6343 13.9908C30.8415 13.9908 31.0403 13.9084 31.1868 13.7619C31.3333 13.6154 31.4156 13.4168 31.4156 13.2096C31.4156 13.0024 31.3333 12.8035 31.1868 12.657C31.0403 12.5105 30.8415 12.4283 30.6343 12.4283V12.4266ZM15.6078 17.3596C15.483 17.3582 15.3598 17.3866 15.2483 17.4427C15.1369 17.4988 15.0405 17.5809 14.9672 17.6819C14.8939 17.7829 14.8459 17.8998 14.8271 18.0231C14.8084 18.1465 14.8194 18.2725 14.8593 18.3907C14.9672 18.711 15.1015 19.0174 15.2593 19.3127C14.5998 19.2417 13.9336 19.2621 13.2797 19.3735C13.1744 19.3871 13.073 19.4221 12.9816 19.4762C12.8903 19.5302 12.8109 19.6023 12.7484 19.6881C12.6858 19.7738 12.6414 19.8714 12.6178 19.9749C12.5943 20.0784 12.592 20.1856 12.6113 20.29C12.6305 20.3944 12.6708 20.4937 12.7297 20.582C12.7887 20.6703 12.865 20.7456 12.954 20.8035C13.043 20.8613 13.1429 20.9003 13.2475 20.9183C13.3521 20.9362 13.4593 20.9328 13.5625 20.908C14.8812 20.6658 16.239 20.9079 17.4 21.5704C17.4103 21.5759 17.4207 21.5811 17.4312 21.5861C17.4364 21.5913 17.4416 21.5966 17.4468 21.6017C17.4642 21.6107 17.482 21.619 17.5 21.6267C17.5205 21.6349 17.5413 21.6422 17.5625 21.6486C17.5692 21.6539 17.5759 21.6592 17.5828 21.6643C17.5946 21.6698 17.6066 21.675 17.6187 21.6799C17.6362 21.6857 17.654 21.6908 17.6718 21.6954C17.6966 21.7018 17.7216 21.707 17.7468 21.711C17.7729 21.7123 17.7989 21.7123 17.825 21.711C17.8437 21.7117 17.8625 21.7117 17.8812 21.711C17.9332 21.7057 17.9845 21.6954 18.0343 21.6799C18.0416 21.68 18.0489 21.68 18.0562 21.6799C18.0983 21.6652 18.1391 21.6468 18.1781 21.6252C18.1844 21.6201 18.1907 21.6148 18.1968 21.6095C18.2129 21.5992 18.2285 21.5882 18.2437 21.5767C18.249 21.5716 18.2542 21.5664 18.2593 21.5611C18.2754 21.5497 18.2911 21.5376 18.3062 21.525C18.3115 21.5199 18.3167 21.5149 18.3218 21.5096C18.3364 21.4961 18.3505 21.4818 18.364 21.4672C18.3683 21.4621 18.3724 21.4569 18.3765 21.4516C18.4251 21.3986 18.4661 21.3393 18.4984 21.2752C18.4995 21.2752 18.5005 21.2752 18.5015 21.2752C18.5037 21.27 18.5058 21.2648 18.5078 21.2595C18.5271 21.2183 18.5428 21.1753 18.5547 21.1313C18.5563 21.1251 18.5579 21.1189 18.5593 21.1127C18.5642 21.0936 18.5684 21.0743 18.5718 21.0549C18.573 21.0486 18.574 21.0422 18.575 21.036C18.5811 20.9904 18.5832 20.9446 18.5812 20.8987C18.5813 20.8924 18.5813 20.886 18.5812 20.8798C18.58 20.8589 18.5779 20.8381 18.575 20.8174C18.574 20.8117 18.573 20.8058 18.5718 20.8C18.5684 20.7806 18.5642 20.7614 18.5593 20.7422C18.5573 20.736 18.5553 20.7298 18.5531 20.7236C18.5486 20.7051 18.5433 20.6868 18.5375 20.6688C18.5355 20.6625 18.5334 20.6563 18.5312 20.6501C18.5241 20.6316 18.5163 20.6133 18.5078 20.5954C18.5047 20.5891 18.5016 20.5829 18.4984 20.5767C18.4897 20.5592 18.4803 20.542 18.4703 20.5252C18.4672 20.5199 18.4641 20.5147 18.4609 20.5096C18.4506 20.493 18.4396 20.4768 18.4281 20.4611C18.4083 20.4353 18.3869 20.4108 18.364 20.3877C18.3515 20.3731 18.3385 20.3591 18.325 20.3455C18.3198 20.3402 18.3146 20.335 18.3093 20.3299C18.2942 20.3173 18.2785 20.3052 18.2625 20.2938C18.2573 20.2886 18.2521 20.2833 18.2468 20.2782C18.2316 20.2672 18.216 20.2568 18.2 20.2469C17.325 19.711 16.6687 18.8861 16.3437 17.9142C16.2925 17.7592 16.1939 17.6241 16.0619 17.528C15.9299 17.4319 15.7711 17.3795 15.6078 17.3783V17.3596ZM35.3922 17.3596C35.2291 17.3611 35.0707 17.4136 34.939 17.5097C34.8073 17.6058 34.709 17.7406 34.6578 17.8953C34.3332 18.8669 33.6757 19.6927 32.8015 20.2267C32.7942 20.2318 32.7869 20.237 32.7797 20.2423C32.7702 20.2473 32.7608 20.2526 32.7515 20.258C32.7463 20.2631 32.741 20.2683 32.7359 20.2736C32.7204 20.285 32.7053 20.2969 32.6906 20.3095C32.6853 20.3146 32.6801 20.3198 32.675 20.3251C32.6614 20.3387 32.6484 20.3527 32.6359 20.3673C32.6056 20.3982 32.5779 20.4318 32.5531 20.4674C32.5461 20.4777 32.5393 20.4879 32.5328 20.4985C32.5251 20.5108 32.5179 20.5234 32.5109 20.5361C32.5066 20.5443 32.5024 20.5526 32.4984 20.5611C32.493 20.5714 32.4878 20.5818 32.4828 20.5923C32.4765 20.6088 32.4708 20.6254 32.4656 20.6423C32.4646 20.6423 32.4635 20.6423 32.4625 20.6423C32.4566 20.6598 32.4514 20.6776 32.4468 20.6955C32.4408 20.7161 32.4356 20.7369 32.4312 20.7579C32.4301 20.7652 32.429 20.7725 32.4281 20.7798C32.4257 20.7918 32.4237 20.8037 32.4218 20.8157C32.4205 20.8276 32.4195 20.8397 32.4187 20.8517C32.4186 20.858 32.4186 20.8642 32.4187 20.8704C32.417 20.9206 32.4202 20.9708 32.4281 21.0203C32.429 21.0276 32.4301 21.035 32.4312 21.0423C32.434 21.0564 32.4371 21.0705 32.4406 21.0844C32.4426 21.0907 32.4447 21.0971 32.4468 21.1033C32.4593 21.1528 32.4766 21.2008 32.4984 21.2469C32.4995 21.2469 32.5005 21.2469 32.5015 21.2469C32.5026 21.2469 32.5036 21.2469 32.5047 21.2469C32.5364 21.3093 32.5763 21.3671 32.6234 21.4188C32.6275 21.424 32.6317 21.4293 32.6359 21.4344C32.6494 21.449 32.6635 21.4632 32.6781 21.4768C32.6832 21.4821 32.6884 21.4871 32.6937 21.4922C32.7089 21.5048 32.7245 21.5169 32.7406 21.5283C32.7457 21.5335 32.7509 21.5388 32.7562 21.5439C32.7715 21.5549 32.7871 21.5653 32.8031 21.5752C32.8093 21.5805 32.8155 21.5857 32.8218 21.5908C32.8685 21.6166 32.9178 21.6374 32.9687 21.6532C33.0361 21.6745 33.106 21.6867 33.1765 21.6892C33.1828 21.6893 33.189 21.6893 33.1953 21.6892C33.2145 21.69 33.2338 21.69 33.2531 21.6892C33.2599 21.6893 33.2666 21.6893 33.2734 21.6892C33.2918 21.6847 33.3101 21.6795 33.3281 21.6736C33.3354 21.6737 33.3427 21.6737 33.35 21.6736C33.3684 21.6691 33.3866 21.6638 33.4047 21.658C33.412 21.6581 33.4192 21.6581 33.4265 21.658C33.4873 21.6391 33.5456 21.6128 33.6 21.5798H33.6125C33.6146 21.5798 33.6166 21.5798 33.6187 21.5798C34.7748 20.9186 36.1276 20.6878 37.4375 20.9282C37.5397 20.9503 37.6454 20.9517 37.7482 20.9322C37.851 20.9127 37.9488 20.8728 38.0358 20.8147C38.1229 20.7567 38.1974 20.6818 38.255 20.5944C38.3125 20.5071 38.3519 20.4089 38.3709 20.306C38.3898 20.2031 38.3879 20.0977 38.3653 19.9955C38.3426 19.8934 38.2997 19.7967 38.239 19.7115C38.1783 19.6263 38.1011 19.5541 38.012 19.4992C37.9229 19.4444 37.8237 19.408 37.7203 19.3922C37.0663 19.2808 36.4002 19.2604 35.7406 19.3314C35.8968 19.0376 36.0328 18.7314 36.139 18.4096C36.1789 18.2915 36.19 18.1656 36.1713 18.0424C36.1526 17.9192 36.1047 17.8021 36.0316 17.7012C35.9585 17.6002 35.8623 17.5184 35.7511 17.4622C35.6398 17.406 35.5168 17.3772 35.3922 17.3783V17.3596ZM21.0109 19.7876C20.8754 19.7928 20.7437 19.8332 20.6285 19.9047C20.5134 19.9763 20.4189 20.0766 20.3543 20.1958C20.2896 20.315 20.2571 20.449 20.2599 20.5845C20.2627 20.72 20.3008 20.8525 20.3703 20.9688C21.2109 22.4251 20.9703 24.25 19.7797 25.4391C19.6325 25.5856 19.5497 25.7846 19.5492 25.9922C19.5488 26.1998 19.6308 26.399 19.7773 26.5461C19.9238 26.6932 20.1227 26.7763 20.3303 26.7767C20.538 26.7772 20.7372 26.6951 20.8843 26.5486C21.7046 25.7288 22.2316 24.6613 22.3836 23.5115C22.5356 22.3618 22.3041 21.1939 21.725 20.1891C21.6548 20.0626 21.5509 19.9583 21.4248 19.8874C21.2987 19.8165 21.1554 19.7819 21.0109 19.7876ZM29.9109 19.7876C29.7798 19.7955 29.6529 19.8362 29.5417 19.9061C29.4306 19.976 29.3388 20.0728 29.275 20.1876C28.6959 21.1924 28.4644 22.3603 28.6164 23.51C28.7683 24.6597 29.2953 25.7272 30.1156 26.5471C30.1883 26.6196 30.2747 26.6771 30.3696 26.7163C30.4646 26.7554 30.5663 26.7755 30.669 26.7754C30.7718 26.7752 30.8735 26.7547 30.9683 26.7153C31.0632 26.6759 31.1493 26.6181 31.2218 26.5454C31.2944 26.4726 31.3519 26.3865 31.3911 26.2915C31.4302 26.1965 31.4503 26.0948 31.4502 25.992C31.45 25.8893 31.4297 25.7876 31.3902 25.6928C31.3508 25.5979 31.293 25.5116 31.2203 25.4391C30.6424 24.8638 30.2713 24.1135 30.1647 23.3052C30.0582 22.4968 30.2222 21.6757 30.6312 20.9704C30.7011 20.8539 30.7395 20.7214 30.7425 20.5857C30.7455 20.4499 30.713 20.3156 30.6484 20.1962C30.5837 20.0768 30.489 19.9764 30.3737 19.9047C30.2583 19.8331 30.1263 19.7927 29.9906 19.7876C29.9641 19.7863 29.9375 19.7863 29.9109 19.7876ZM10.1843 25.7548C10.0689 25.7637 9.95682 25.7982 9.85633 25.8559C9.75584 25.9135 9.66941 25.9927 9.60331 26.0878C9.53721 26.1829 9.49308 26.2917 9.47413 26.4059C9.45518 26.5202 9.46187 26.6371 9.49372 26.7485C9.73435 27.6422 10.2078 28.458 10.8625 29.1111C10.9334 29.1903 11.0198 29.254 11.1162 29.2986C11.2127 29.3432 11.3172 29.3677 11.4234 29.3705C11.5297 29.3733 11.6354 29.3545 11.7341 29.315C11.8327 29.2756 11.9224 29.2165 11.9974 29.1413C12.0724 29.066 12.1313 28.9761 12.1705 28.8773C12.2096 28.7785 12.2282 28.6728 12.2251 28.5666C12.222 28.4603 12.1972 28.3558 12.1523 28.2595C12.1074 28.1632 12.0434 28.0771 11.964 28.0064C11.5039 27.546 11.173 26.9727 11.0047 26.3439C10.9626 26.1783 10.8675 26.0309 10.7337 25.9245C10.5999 25.8181 10.4349 25.7584 10.264 25.7548C10.2375 25.7534 10.2109 25.7534 10.1843 25.7548ZM40.7328 25.7548C40.5624 25.7591 40.3982 25.8191 40.265 25.9255C40.1319 26.0318 40.0372 26.1788 39.9953 26.3439C39.8265 26.9721 39.4968 27.547 39.0359 28.0064C38.9566 28.0771 38.8925 28.1632 38.8476 28.2595C38.8027 28.3558 38.778 28.4603 38.7748 28.5666C38.7717 28.6728 38.7903 28.7785 38.8295 28.8773C38.8686 28.9761 38.9275 29.066 39.0026 29.1413C39.0776 29.2165 39.1672 29.2756 39.2659 29.315C39.3646 29.3545 39.4703 29.3733 39.5765 29.3705C39.6827 29.3677 39.7873 29.3432 39.8837 29.2986C39.9802 29.254 40.0665 29.1903 40.1375 29.1111C40.7937 28.458 41.2656 27.6422 41.5062 26.7485C41.5395 26.6308 41.5447 26.5069 41.5214 26.3869C41.4981 26.2668 41.4469 26.1539 41.372 26.0573C41.297 25.9606 41.2004 25.8828 41.0899 25.8303C40.9795 25.7778 40.8582 25.7519 40.7359 25.7548C40.7349 25.7548 40.7338 25.7548 40.7328 25.7548ZM19.0875 31.6502C19.0423 31.6515 18.9974 31.6567 18.9531 31.6658C18.9521 31.6658 18.951 31.6658 18.95 31.6658C18.8756 31.6788 18.8035 31.7024 18.7359 31.736C18.7317 31.736 18.7276 31.736 18.7234 31.736C18.7198 31.736 18.7161 31.736 18.7125 31.736C18.703 31.741 18.6936 31.7463 18.6843 31.7517C18.678 31.7568 18.6718 31.762 18.6656 31.7673C17.509 32.4288 16.1559 32.66 14.8453 32.4204C14.7419 32.3952 14.6345 32.3915 14.5297 32.4093C14.4248 32.4271 14.3247 32.4662 14.2355 32.5241C14.1463 32.582 14.0698 32.6575 14.0108 32.746C13.9517 32.8344 13.9114 32.9341 13.8922 33.0387C13.8731 33.1434 13.8754 33.2507 13.8992 33.3544C13.9231 33.4581 13.9678 33.5559 14.0307 33.6416C14.0936 33.7274 14.1733 33.7993 14.265 33.8532C14.3567 33.907 14.4585 33.9417 14.564 33.9548C15.2183 34.0677 15.8852 34.0888 16.5453 34.0174C16.386 34.3127 16.2521 34.6211 16.1453 34.9392C16.1058 35.038 16.087 35.1438 16.0899 35.2501C16.0928 35.3565 16.1174 35.4613 16.1622 35.5578C16.207 35.6543 16.271 35.7406 16.3503 35.8114C16.4297 35.8823 16.5226 35.9363 16.6236 35.9699C16.7245 36.0036 16.8312 36.0164 16.9372 36.0073C17.0432 35.9983 17.1463 35.9676 17.2401 35.9173C17.3338 35.867 17.4163 35.7982 17.4825 35.7149C17.5487 35.6316 17.5972 35.5355 17.625 35.4328C17.947 34.4681 18.5972 33.647 19.4625 33.1126C19.4656 33.1126 19.4687 33.1126 19.4718 33.1126H19.4812C19.5481 33.0728 19.6087 33.0233 19.6609 32.9657C19.6739 32.9521 19.6864 32.938 19.6984 32.9235C19.814 32.7753 19.8722 32.5903 19.8624 32.4026C19.8527 32.2149 19.7756 32.0372 19.6453 31.9018C19.6337 31.8889 19.6217 31.8763 19.6093 31.8642C19.6022 31.8578 19.5949 31.8516 19.5875 31.8455C19.5864 31.8455 19.5854 31.8455 19.5843 31.8455C19.5256 31.7955 19.4598 31.7544 19.389 31.7236C19.3741 31.7169 19.359 31.7105 19.3437 31.7047C19.3345 31.6993 19.3251 31.6941 19.3156 31.6891C19.314 31.6891 19.3125 31.6891 19.3109 31.6891C19.2878 31.6818 19.2643 31.6756 19.2406 31.6704C19.2241 31.6646 19.2074 31.6594 19.1906 31.6548C19.1638 31.6481 19.1367 31.6429 19.1093 31.6391C19.1021 31.639 19.0948 31.639 19.0875 31.6391V31.6502ZM31.8843 31.6502C31.8164 31.6534 31.7492 31.6654 31.6843 31.686C31.6823 31.686 31.6802 31.686 31.6781 31.686C31.5808 31.7172 31.4906 31.7671 31.4125 31.8329C31.4114 31.8329 31.4104 31.8329 31.4093 31.8329C31.3138 31.9142 31.2392 32.0173 31.1919 32.1335C31.1447 32.2497 31.1261 32.3756 31.1377 32.5005C31.1493 32.6254 31.1909 32.7458 31.2589 32.8512C31.3268 32.9567 31.4192 33.0442 31.5281 33.1064C32.3984 33.6408 33.0515 34.4626 33.375 35.4313C33.4034 35.5335 33.4522 35.6289 33.5186 35.7115C33.585 35.7942 33.6675 35.8624 33.7611 35.9122C33.8548 35.9619 33.9575 35.9921 34.0632 36.0008C34.1688 36.0096 34.2752 35.9967 34.3757 35.9631C34.4762 35.9294 34.5689 35.8758 34.6479 35.8052C34.727 35.7346 34.7909 35.6485 34.8357 35.5524C34.8806 35.4564 34.9053 35.3521 34.9086 35.2461C34.9118 35.1401 34.8935 35.0346 34.8547 34.936C34.7478 34.6179 34.614 34.3095 34.4547 34.0142C35.1109 34.0767 35.7765 34.0751 36.4359 33.9548C36.5398 33.9397 36.6395 33.9037 36.7292 33.8492C36.8189 33.7946 36.8967 33.7226 36.9579 33.6373C37.0191 33.552 37.0624 33.4551 37.0854 33.3527C37.1084 33.2503 37.1105 33.1443 37.0916 33.041C37.0727 32.9378 37.0331 32.8393 36.9754 32.7517C36.9176 32.664 36.8427 32.5891 36.7553 32.531C36.6678 32.4729 36.5696 32.4329 36.4664 32.4137C36.3632 32.3944 36.2572 32.3962 36.1547 32.4188C34.8437 32.6595 33.4906 32.4189 32.3343 31.7658C32.3312 31.7658 32.3281 31.7658 32.325 31.7658C32.3235 31.7649 32.3219 31.7644 32.3203 31.7644C32.3186 31.7644 32.317 31.7649 32.3156 31.7658C32.3063 31.7604 32.297 31.7551 32.2875 31.7501C32.2818 31.7448 32.2761 31.7396 32.2703 31.7345C32.2682 31.7345 32.2661 31.7345 32.264 31.7345C32.195 31.7004 32.1213 31.6766 32.0453 31.6641C32.0015 31.6551 31.9571 31.6499 31.9125 31.6485C31.9052 31.6484 31.8979 31.6484 31.8906 31.6485C31.8885 31.6485 31.8864 31.6485 31.8843 31.6485V31.6502ZM22.9203 35.4891C22.7136 35.4924 22.5167 35.5774 22.3726 35.7256C22.2285 35.8738 22.149 36.0732 22.1515 36.2799C22.1515 37.2736 21.3625 38.0657 20.3656 38.0657C20.1584 38.0657 19.9597 38.1481 19.8132 38.2946C19.6667 38.4411 19.5843 38.6398 19.5843 38.847C19.5843 39.0542 19.6667 39.2528 19.8132 39.3994C19.9597 39.5459 20.1584 39.6282 20.3656 39.6282C21.2528 39.6254 22.1028 39.2716 22.7301 38.6442C23.3574 38.0169 23.7112 37.1671 23.714 36.2799C23.7153 36.1755 23.6956 36.0718 23.6561 35.9751C23.6167 35.8784 23.5582 35.7906 23.4842 35.7168C23.4102 35.6431 23.3221 35.585 23.2253 35.5459C23.1284 35.5068 23.0247 35.4874 22.9203 35.4891ZM28.0031 35.4891C27.8053 35.505 27.6209 35.5956 27.4874 35.7424C27.3539 35.8892 27.2813 36.0815 27.2843 36.2799C27.2872 37.1673 27.6412 38.0174 28.2688 38.6448C28.8965 39.2722 29.7469 39.6258 30.6343 39.6282C30.8415 39.6282 31.0403 39.5459 31.1868 39.3994C31.3333 39.2528 31.4156 39.0542 31.4156 38.847C31.4156 38.6398 31.3333 38.4411 31.1868 38.2946C31.0403 38.1481 30.8415 38.0657 30.6343 38.0657C30.3994 38.0672 30.1665 38.022 29.9492 37.9328C29.7318 37.8436 29.5344 37.7119 29.3683 37.5458C29.2021 37.3797 29.0706 37.1824 28.9814 36.965C28.8922 36.7477 28.847 36.5148 28.8484 36.2799C28.8509 36.0732 28.7714 35.8738 28.6273 35.7256C28.4833 35.5774 28.2863 35.4924 28.0797 35.4891C28.0536 35.4878 28.0291 35.4878 28.0031 35.4891Z" fill="#00ADAD"/>
</g>
<defs>
<clipPath id="clip0_452_31750">
<rect width="50" height="50" fill="white" transform="translate(0.5)"/>
</clipPath>
</defs>
</svg>
