<svg width="51" height="50" viewBox="0 0 51 50" fill="none" xmlns="http://www.w3.org/2000/svg">
<path d="M17.2907 8.6243C17.2091 10.4923 17.8235 11.7963 19.2687 13.9414M17.2907 8.6243C21.1751 3.9169 29.8252 3.9169 33.7097 8.6243M17.2907 8.6243C11.3323 15.3207 17.1388 22.1468 21.3913 27.5187M19.2687 13.9414C21.2483 16.8794 23.307 19.7805 25.5002 22.5631M19.2687 13.9414C23.6163 10.9057 27.384 10.9057 31.7316 13.9414M33.7097 8.6243C33.7913 10.4923 33.1769 11.7963 31.7316 13.9414M33.7097 8.6243C39.6681 15.3207 33.8616 22.1468 29.609 27.5187M31.7316 13.9414C29.752 16.8794 27.6934 19.7805 25.5002 22.5631M25.5002 22.5631C24.1585 24.2653 22.7889 25.9033 21.3913 27.5187M21.3913 27.5187C19.4443 29.7694 13.9389 35.9772 13.3793 36.608C13.3498 36.6413 13.3484 36.6839 13.372 36.7216C13.7159 37.2682 16.252 41.299 17.1669 42.708C17.2269 42.8042 21.2816 37.8937 25.5002 32.6593M25.5002 32.6593C29.7188 37.8937 33.7735 42.8042 33.8335 42.708C34.5791 41.5597 37.2716 37.2878 37.6281 36.7221C37.6518 36.6845 37.6511 36.642 37.6216 36.6087C37.0462 35.959 31.186 29.3416 29.609 27.5187M25.5002 32.6593C26.8983 30.9245 28.3144 29.1542 29.609 27.5187" stroke="#00ADAD" stroke-width="1.5" stroke-miterlimit="10"/>
</svg>
