<svg width="51" height="50" viewBox="0 0 51 50" fill="none" xmlns="http://www.w3.org/2000/svg">
<path d="M27.5833 36.458H27.9166C31.6878 36.458 33.5734 36.458 34.745 35.2864C35.9166 34.1149 35.9166 32.2292 35.9166 28.458V13.208C35.9166 9.43677 35.9166 7.55115 34.745 6.37958C33.5734 5.20801 31.6878 5.20801 27.9166 5.20801H23.0833C19.312 5.20801 17.4264 5.20801 16.2548 6.37958C15.0833 7.55115 15.0833 9.43677 15.0833 13.208V28.458C15.0833 32.2292 15.0833 34.1149 16.2548 35.2864C17.4264 36.458 19.312 36.458 23.0833 36.458H23.4166M27.5833 36.458V37.4997C27.5833 38.6503 26.6505 39.583 25.4999 39.583C24.3493 39.583 23.4166 38.6503 23.4166 37.4997V36.458M27.5833 36.458H23.4166" stroke="#00ADAD" stroke-width="1.5"/>
<path d="M15.0833 15.625H19.2499" stroke="#00ADAD" stroke-width="1.5" stroke-linecap="round"/>
<path d="M15.0833 19.791H35.9166" stroke="#00ADAD" stroke-width="1.5" stroke-linecap="round"/>
<path d="M15.0833 23.958H19.2499" stroke="#00ADAD" stroke-width="1.5" stroke-linecap="round"/>
<path d="M16.125 28.125H19.25" stroke="#00ADAD" stroke-width="1.5" stroke-linecap="round"/>
<path d="M25.5 39.583C25.5 42.708 26.5417 44.7913 28.625 44.7913" stroke="#00ADAD" stroke-width="1.5" stroke-linecap="round"/>
</svg>
