<svg width="51" height="50" viewBox="0 0 51 50" fill="none" xmlns="http://www.w3.org/2000/svg">
<path d="M18.167 9.5H18.917C18.917 9.2234 18.7648 8.96926 18.5209 8.83874C18.277 8.70823 17.9811 8.72253 17.751 8.87596L18.167 9.5ZM32.2178 11.5339L32.6339 10.9099V10.9099L32.2178 11.5339ZM29.167 9.5L29.583 8.87596C29.3529 8.72253 29.057 8.70823 28.8131 8.83874C28.5692 8.96926 28.417 9.2234 28.417 9.5H29.167ZM17.417 12.25C17.417 12.6642 17.7528 13 18.167 13C18.5812 13 18.917 12.6642 18.917 12.25H17.417ZM28.417 12.25C28.417 12.6642 28.7528 13 29.167 13C29.5812 13 29.917 12.6642 29.917 12.25H28.417ZM33.917 16.1102V22.3333H35.417V16.1102H33.917ZM27.3337 28.9167H20.0003V30.4167H27.3337V28.9167ZM13.417 22.3333V16.1102H11.917V22.3333H13.417ZM15.5322 12.1579L18.583 10.124L17.751 8.87596L14.7001 10.9099L15.5322 12.1579ZM32.6339 10.9099L29.583 8.87596L28.751 10.124L31.8018 12.1579L32.6339 10.9099ZM17.417 9.5V12.25H18.917V9.5H17.417ZM28.417 9.5V12.25H29.917V9.5H28.417ZM20.0003 28.9167C16.3645 28.9167 13.417 25.9692 13.417 22.3333H11.917C11.917 26.7976 15.536 30.4167 20.0003 30.4167V28.9167ZM33.917 22.3333C33.917 25.9692 30.9695 28.9167 27.3337 28.9167V30.4167C31.798 30.4167 35.417 26.7976 35.417 22.3333H33.917ZM35.417 16.1102C35.417 14.0205 34.3726 12.069 32.6339 10.9099L31.8018 12.1579C33.1233 13.0389 33.917 14.522 33.917 16.1102H35.417ZM13.417 16.1102C13.417 14.522 14.2107 13.0389 15.5322 12.1579L14.7001 10.9099C12.9614 12.069 11.917 14.0205 11.917 16.1102H13.417ZM22.917 29.6667V40.6667H24.417V29.6667H22.917ZM25.5003 43.25H29.167V41.75H25.5003V43.25ZM31.7503 40.6667V37.6667H30.2503V40.6667H31.7503ZM32.8337 36.5833H34.667V35.0833H32.8337V36.5833ZM31.7503 37.6667C31.7503 37.0684 32.2354 36.5833 32.8337 36.5833V35.0833C31.4069 35.0833 30.2503 36.2399 30.2503 37.6667H31.7503ZM29.167 43.25C30.5937 43.25 31.7503 42.0934 31.7503 40.6667H30.2503C30.2503 41.265 29.7653 41.75 29.167 41.75V43.25ZM22.917 40.6667C22.917 42.0934 24.0736 43.25 25.5003 43.25V41.75C24.902 41.75 24.417 41.265 24.417 40.6667H22.917ZM39.417 35.8325C39.417 36.9371 38.5216 37.8325 37.417 37.8325V39.3325C39.35 39.3325 40.917 37.7655 40.917 35.8325H39.417ZM37.417 37.8325C36.3121 37.8325 35.417 36.9376 35.417 35.8333H33.917C33.917 37.7666 35.4843 39.3325 37.417 39.3325V37.8325ZM35.417 35.8333C35.417 34.7285 36.3127 33.8325 37.417 33.8325V32.3325C35.4837 32.3325 33.917 33.9006 33.917 35.8333H35.417ZM37.417 33.8325C38.5216 33.8325 39.417 34.7279 39.417 35.8325H40.917C40.917 33.8995 39.35 32.3325 37.417 32.3325V33.8325Z" fill="#00ADAD"/>
</svg>
