<svg width="24" height="25" viewBox="0 0 24 25" fill="none" xmlns="http://www.w3.org/2000/svg">
<path fill-rule="evenodd" clip-rule="evenodd" d="M15.9202 13.2988C15.9725 13.0407 16 12.7736 16 12.5C16 10.2909 14.2091 8.5 12 8.5C11.7264 8.5 11.4593 8.52746 11.2012 8.57977L12.7295 10.1081C13.5236 10.35 14.15 10.9764 14.3919 11.7705L15.9202 13.2988ZM9.76246 11.3837C9.5945 11.7197 9.5 12.0988 9.5 12.5C9.5 13.8807 10.6193 15 12 15C12.4012 15 12.7803 14.9055 13.1163 14.7375L14.212 15.8332C13.5784 16.2545 12.8179 16.5 12 16.5C9.79086 16.5 8 14.7091 8 12.5C8 11.6821 8.24547 10.9216 8.66676 10.288L9.76246 11.3837Z" fill="#B6D4D4"/>
<path fill-rule="evenodd" clip-rule="evenodd" d="M18.5692 16.6552C19.5844 15.7845 20.4026 14.8779 20.9597 14.2015C20.9833 14.1728 21.0079 14.1434 21.0332 14.1131C21.3466 13.7376 21.77 13.2304 21.77 12.5C21.77 11.7696 21.3466 11.2624 21.0332 10.8869L21.0331 10.8869C21.0078 10.8566 20.9833 10.8272 20.9597 10.7985C20.2198 9.90025 19.0196 8.5959 17.5087 7.50885C16.0056 6.42747 14.1097 5.5 11.9998 5.5C10.6741 5.5 9.43286 5.86614 8.32051 6.40655L9.83922 7.92526C10.5415 7.65658 11.2663 7.5 11.9998 7.5C13.5256 7.5 15.0136 8.1776 16.3406 9.13233C17.6598 10.0814 18.7357 11.2442 19.4159 12.07C19.5157 12.1912 19.5902 12.2818 19.6519 12.3615C19.7008 12.4246 19.7319 12.4685 19.7522 12.5C19.7319 12.5315 19.7008 12.5754 19.6519 12.6385C19.5902 12.7182 19.5157 12.8088 19.4159 12.93C18.8808 13.5796 18.1009 14.4378 17.1503 15.2363L18.5692 16.6552ZM7.9887 8.90316C7.87773 8.97754 7.76777 9.054 7.6589 9.13233C6.33978 10.0814 5.26385 11.2442 4.58362 12.07C4.48385 12.1912 4.40934 12.2818 4.34761 12.3615C4.29874 12.4246 4.26762 12.4685 4.24731 12.5C4.26762 12.5315 4.29874 12.5754 4.34761 12.6385C4.40934 12.7182 4.48385 12.8088 4.58362 12.93C5.26384 13.7558 6.33978 14.9186 7.6589 15.8677C8.98592 16.8224 10.474 17.5 11.9998 17.5C13.212 17.5 14.4004 17.0723 15.5032 16.4177L16.9552 17.8697C15.551 18.7803 13.8584 19.5 11.9998 19.5C9.88983 19.5 7.99391 18.5725 6.49087 17.4912C4.97993 16.4041 3.77972 15.0998 3.03985 14.2015C3.01631 14.1729 2.99178 14.1435 2.96654 14.1133L2.96636 14.1131C2.65294 13.7376 2.22949 13.2304 2.22949 12.5C2.22949 11.7696 2.65294 11.2624 2.96636 10.8869L2.96638 10.8869C2.99168 10.8566 3.01626 10.8272 3.03985 10.7985C3.77972 9.90024 4.97993 8.5959 6.49087 7.50884C6.51091 7.49443 6.53102 7.48003 6.5512 7.46567L7.9887 8.90316Z" fill="#B6D4D4"/>
<path d="M5 2.5L21 18.5" stroke="#B6D4D4" stroke-width="2"/>
</svg>
