<svg width="32" height="33" viewBox="0 0 32 33" fill="none" xmlns="http://www.w3.org/2000/svg">
<g clip-path="url(#clip0_994_14010)">
<path d="M9 16.167C9 15.0624 9.89543 14.167 11 14.167H21C22.1046 14.167 23 15.0624 23 16.167V21.5003C23 22.6049 22.1046 23.5003 21 23.5003H11C9.89543 23.5003 9 22.6049 9 21.5003V16.167Z" stroke="#00ADAD" stroke-width="1.5"/>
<path d="M13 13.8646L13 7.50035C13 6.39577 13.8954 5.50033 15 5.50035L17 5.50037C18.1046 5.50038 19 6.39581 19 7.50037L19 14.167" stroke="#00ADAD" stroke-width="1.5"/>
<path d="M14.6677 18.7892C14.6619 18.9642 14.6907 19.1387 14.7523 19.3026C14.8139 19.4665 14.9072 19.6166 15.0269 19.7445C15.1465 19.8723 15.2902 19.9753 15.4496 20.0476C15.6091 20.1199 15.7812 20.1601 15.9562 20.1659C16.1312 20.1717 16.3057 20.143 16.4696 20.0814C16.6335 20.0197 16.7836 19.9265 16.9114 19.8068C17.0393 19.6872 17.1423 19.5435 17.2146 19.384C17.2869 19.2246 17.3271 19.0524 17.3329 18.8774C17.3387 18.7024 17.31 18.528 17.2484 18.3641C17.1867 18.2002 17.0934 18.0501 16.9738 17.9222C16.8541 17.7944 16.7105 17.6914 16.551 17.619C16.3916 17.5467 16.2194 17.5065 16.0444 17.5007C15.8694 17.4949 15.695 17.5237 15.5311 17.5853C15.3672 17.6469 15.217 17.7402 15.0892 17.8599C14.9614 17.9795 14.8583 18.1232 14.786 18.2826C14.7137 18.4421 14.6735 18.6142 14.6677 18.7892Z" fill="#00ADAD"/>
</g>
<defs>
<clipPath id="clip0_994_14010">
<rect width="32" height="32" fill="white" transform="translate(0 0.5)"/>
</clipPath>
</defs>
</svg>
