<svg width="32" height="33" viewBox="0 0 32 33" fill="none" xmlns="http://www.w3.org/2000/svg">
<g clip-path="url(#clip0_994_5170)">
<path d="M10.25 10.62C10.25 14.8259 11.4855 18.2562 13.8647 20.6353C16.2438 23.0145 19.6741 24.25 23.88 24.25C24.9128 24.25 25.75 23.4128 25.75 22.38V18.96C25.75 18.262 25.1915 17.7333 24.5442 17.6957C23.6797 17.6455 22.5937 17.468 21.8905 17.1913C21.3032 16.9602 20.469 17.142 20.1539 17.8771L19.7582 18.8005C18.754 18.6783 17.7956 18.1834 17.0507 17.4651C16.3024 16.7436 15.8173 15.8438 15.6985 14.959L16.7871 14.337C17.431 13.969 17.552 13.2017 17.3287 12.6592C17.0416 11.9614 16.856 10.8444 16.8044 9.95581C16.7668 9.30846 16.2381 8.75 15.5401 8.75L12.12 8.75C11.0872 8.75 10.25 9.58723 10.25 10.62Z" stroke="#00ADAD" stroke-width="1.5" stroke-linecap="round" stroke-linejoin="round"/>
</g>
<defs>
<clipPath id="clip0_994_5170">
<rect width="32" height="32" fill="white" transform="translate(0 0.5)"/>
</clipPath>
</defs>
</svg>
