<svg width="24" height="25" viewBox="0 0 24 25" fill="none" xmlns="http://www.w3.org/2000/svg">
<path fill-rule="evenodd" clip-rule="evenodd" d="M12 15C13.3807 15 14.5 13.8807 14.5 12.5C14.5 11.1193 13.3807 10 12 10C10.6193 10 9.5 11.1193 9.5 12.5C9.5 13.8807 10.6193 15 12 15ZM12 16.5C14.2091 16.5 16 14.7091 16 12.5C16 10.2909 14.2091 8.5 12 8.5C9.79086 8.5 8 10.2909 8 12.5C8 14.7091 9.79086 16.5 12 16.5Z" fill="#B6D4D4"/>
<path fill-rule="evenodd" clip-rule="evenodd" d="M7.6589 9.13233C6.33978 10.0814 5.26385 11.2442 4.58362 12.07C4.48385 12.1912 4.40934 12.2818 4.34761 12.3615C4.29874 12.4246 4.26762 12.4685 4.24731 12.5C4.26762 12.5315 4.29874 12.5754 4.34761 12.6385C4.40934 12.7182 4.48385 12.8088 4.58362 12.93C5.26384 13.7558 6.33978 14.9186 7.6589 15.8677C8.98592 16.8224 10.474 17.5 11.9998 17.5C13.5256 17.5 15.0136 16.8224 16.3406 15.8677C17.6598 14.9186 18.7357 13.7558 19.4159 12.93C19.5157 12.8088 19.5902 12.7182 19.6519 12.6385C19.7008 12.5754 19.7319 12.5315 19.7522 12.5C19.7319 12.4685 19.7008 12.4246 19.6519 12.3615C19.5902 12.2818 19.5157 12.1912 19.4159 12.07C18.7357 11.2442 17.6598 10.0814 16.3406 9.13233C15.0136 8.1776 13.5256 7.5 11.9998 7.5C10.474 7.5 8.98592 8.1776 7.6589 9.13233ZM6.49087 7.50884C7.99391 6.42747 9.88983 5.5 11.9998 5.5C14.1097 5.5 16.0056 6.42747 17.5087 7.50885C19.0196 8.5959 20.2198 9.90025 20.9597 10.7985C20.9833 10.8272 21.0079 10.8566 21.0332 10.8869C21.3466 11.2624 21.77 11.7696 21.77 12.5C21.77 13.2304 21.3466 13.7376 21.0332 14.1131C21.0079 14.1434 20.9833 14.1728 20.9597 14.2015C20.2198 15.0998 19.0196 16.4041 17.5087 17.4912C16.0056 18.5725 14.1097 19.5 11.9998 19.5C9.88983 19.5 7.99391 18.5725 6.49087 17.4912C4.97993 16.4041 3.77972 15.0998 3.03985 14.2015C3.01626 14.1728 2.99167 14.1434 2.96636 14.1131C2.65294 13.7376 2.22949 13.2304 2.22949 12.5C2.22949 11.7696 2.65294 11.2624 2.96636 10.8869C2.99167 10.8566 3.01626 10.8272 3.03985 10.7985C3.77972 9.90024 4.97993 8.5959 6.49087 7.50884Z" fill="#B6D4D4"/>
</svg>
