<svg width="32" height="33" viewBox="0 0 32 33" fill="none" xmlns="http://www.w3.org/2000/svg">
<g clip-path="url(#clip0_994_14219)">
<path d="M13.0016 12.4008C12.9886 12.7946 13.0533 13.187 13.1919 13.5558C13.3306 13.9245 13.5405 14.2624 13.8097 14.55C14.0789 14.8377 14.4021 15.0694 14.7609 15.2322C15.1197 15.3949 15.5071 15.4853 15.9008 15.4984C16.2946 15.5114 16.687 15.4467 17.0558 15.3081C17.4245 15.1694 17.7624 14.9595 18.05 14.6903C18.3377 14.4211 18.5694 14.0979 18.7322 13.7391C18.8949 13.3803 18.9853 12.9929 18.9984 12.5992C19.0114 12.2054 18.9467 11.813 18.8081 11.4442C18.6694 11.0755 18.4595 10.7376 18.1903 10.45C17.9211 10.1623 17.5979 9.93055 17.2391 9.76784C16.8803 9.60512 16.4929 9.51467 16.0992 9.50164C15.7054 9.48861 15.313 9.55327 14.9442 9.69192C14.5755 9.83056 14.2376 10.0405 13.95 10.3097C13.6623 10.5789 13.4306 10.9021 13.2678 11.2609C13.1051 11.6197 13.0147 12.0071 13.0016 12.4008Z" stroke="#00ADAD" stroke-width="1.5" stroke-linecap="round" stroke-linejoin="round"/>
<path d="M22 23.5C21.5085 22.316 20.6761 21.304 19.6081 20.592C18.5401 19.88 17.2845 19.5 16 19.5C14.7155 19.5 13.4599 19.88 12.3919 20.592C11.3239 21.304 10.4915 22.316 10 23.5" stroke="#00ADAD" stroke-width="1.5" stroke-linecap="round" stroke-linejoin="round"/>
</g>
<defs>
<clipPath id="clip0_994_14219">
<rect width="32" height="32" fill="white" transform="translate(0 0.5)"/>
</clipPath>
</defs>
</svg>
